<svg width="514" height="315" viewBox="0 0 514 315" fill="none" xmlns="http://www.w3.org/2000/svg">
<g clip-path="url(#clip0_3070_92)">
<path fill-rule="evenodd" clip-rule="evenodd" d="M123.382 73.504H72.984V241H125.5V148L175.5 208L223.127 148V241H273V73.504H223.127L175.5 135.5L123.382 73.504ZM39.9984 0H474.002C496.083 0 514 17.9063 514 39.9948V275.005C514 297.09 496.092 315 474.002 315H39.9984C17.9172 315 0 297.094 0 275.005V39.9948C0 17.9097 17.9079 0 39.9984 0ZM360 74.5H359.503V160.5H311.5L385.5 241L459.503 160.006H409.523V74.5H360Z" fill="#229EE8"/>
</g>
<defs>
<clipPath id="clip0_3070_92">
<rect width="514" height="315" fill="white"/>
</clipPath>
</defs>
</svg>
